<?xml version="1.0" encoding="iso-8859-1"?>
<!-- Generator: Adobe Illustrator 19.0.0, SVG Export Plug-In . SVG Version: 6.00 Build 0)  -->
<svg version="1.1" id="Capa_1" xmlns="http://www.w3.org/2000/svg" xmlns:xlink="http://www.w3.org/1999/xlink" x="0px" y="0px"
	 viewBox="0 0 512 512" style="enable-background:new 0 0 512 512;" xml:space="preserve">
<path style="fill:#EDF2FA;" d="M219,422h-73c-22.091,0-40,17.909-40,40l0,0c0,22.091,17.909,40,40,40h220c22.091,0,40-17.909,40-40
	l0,0c0-22.091-17.909-40-40-40h-73H219z"/>
<path style="fill:#FF5D5D;" d="M428.164,182.165c0-95.188-77.25-172.334-172.478-172.164C160.6,10.169,83.175,88.307,83.839,183.392
	c0.285,40.742,14.728,78.114,38.645,107.459h-0.012l118.333,151.672c7.717,9.891,22.675,9.893,30.394,0.004L388.89,291.748h-0.1
	C413.386,261.977,428.164,223.797,428.164,182.165z"/>
<circle style="fill:#FFFFFF;" cx="256" cy="184.91" r="118"/>
<path d="M165.099,355.49c2.63,0,5.21-1.07,7.07-2.93c1.859-1.86,2.93-4.44,2.93-7.07s-1.07-5.21-2.93-7.07
	c-1.86-1.86-4.43-2.93-7.07-2.93c-2.63,0-5.21,1.07-7.07,2.93c-1.859,1.86-2.93,4.44-2.93,7.07s1.07,5.21,2.93,7.07
	C159.889,354.42,162.47,355.49,165.099,355.49z"/>
<path d="M256,312.912c70.579,0,128-57.42,128-128s-57.421-128-128-128s-128,57.42-128,128S185.421,312.912,256,312.912z M256,76.912
	c59.552,0,108,48.449,108,108s-48.448,108-108,108s-108-48.449-108-108S196.448,76.912,256,76.912z"/>
<path d="M315.346,156.318c1.725,3.571,5.294,5.652,9.011,5.652c1.459,0,2.941-0.321,4.344-0.998
	c4.973-2.403,7.057-8.382,4.653-13.354c-0.205-0.425-0.413-0.848-0.625-1.269c-2.483-4.934-8.498-6.919-13.428-4.437
	c-4.934,2.483-6.92,8.495-4.438,13.428C315.026,155.665,315.187,155.991,315.346,156.318z"/>
<path d="M246,260.769c0,5.523,4.478,10,10,10c21.735,0,42.474-8.139,58.396-22.917c15.834-14.697,25.49-34.613,27.19-56.078
	c0.436-5.506-3.674-10.322-9.18-10.758c-5.507-0.437-10.321,3.674-10.758,9.179c-2.689,33.967-31.526,60.574-65.648,60.574
	C250.477,250.769,246,255.246,246,260.769z"/>
<path d="M190.351,179.629c2.689-33.967,31.526-60.574,65.648-60.574c5.522,0,10-4.477,10-10s-4.478-10-10-10
	c-21.735,0-42.474,8.139-58.396,22.917c-15.834,14.697-25.49,34.612-27.19,56.078c-0.436,5.506,3.674,10.322,9.18,10.758
	c0.269,0.021,0.535,0.032,0.8,0.032C185.558,188.84,189.936,184.866,190.351,179.629z"/>
<path d="M366,412h-58.287l89.061-114.099c0.206-0.264,0.396-0.536,0.572-0.815c26.332-32.357,40.819-73.115,40.819-114.921
	c0-48.719-18.989-94.505-53.47-128.924C350.293,18.899,304.603,0,256.003,0c-0.11,0-0.225,0-0.334,0
	c-48.659,0.086-94.436,19.28-128.898,54.046C92.298,88.823,73.5,134.783,73.84,183.462c0.287,41.175,14.706,81.415,40.611,113.36
	c0.045,0.061,0.091,0.121,0.137,0.181l15.142,19.408c3.398,4.354,9.681,5.129,14.036,1.733c4.354-3.397,5.13-9.681,1.733-14.036
	l-14.872-19.062c-0.125-0.174-0.255-0.345-0.391-0.512c-23.551-28.895-36.137-63.894-36.396-101.211
	c-0.303-43.317,16.437-84.228,47.135-115.196C171.662,37.169,212.407,20.078,255.704,20c43.356-0.032,84.167,16.754,114.861,47.394
	c30.695,30.641,47.6,71.4,47.6,114.77c0,37.614-13.17,74.27-37.083,103.214c-0.326,0.394-0.617,0.809-0.873,1.239L263.316,436.375
	c-1.771,2.268-4.436,3.569-7.313,3.569h-0.001c-2.877,0-5.543-1.302-7.313-3.571l-53.394-68.438
	c-3.399-4.354-9.683-5.13-14.036-1.733c-4.354,3.397-5.13,9.681-1.733,14.036L204.306,412H146c-27.57,0-50,22.43-50,50
	s22.43,50,50,50h220c27.57,0,50-22.43,50-50S393.57,412,366,412z M366,492H146c-16.542,0-30-13.458-30-30s13.458-30,30-30h73.91
	l13.01,16.675c5.587,7.16,13.999,11.267,23.08,11.268h0.003c9.08,0,17.492-4.105,23.079-11.263l13.02-16.68H366
	c16.542,0,30,13.458,30,30S382.542,492,366,492z"/>
<g>
</g>
<g>
</g>
<g>
</g>
<g>
</g>
<g>
</g>
<g>
</g>
<g>
</g>
<g>
</g>
<g>
</g>
<g>
</g>
<g>
</g>
<g>
</g>
<g>
</g>
<g>
</g>
<g>
</g>
</svg>
